<?xml version="1.0" encoding="utf-8"?><svg xmlns="http://www.w3.org/2000/svg" xmlns:xlink="http://www.w3.org/1999/xlink"><symbol fill="none" viewBox="0 0 24 24" id="right" xmlns="http://www.w3.org/2000/svg"><path fill-rule="evenodd" clip-rule="evenodd" d="M10.835 12.007l.002.354c.012 1.404.096 2.657.242 3.451 0 .015.16.802.261 1.065.16.379.447.7.809.904a2 2 0 00.91.22c.249-.012.66-.138.954-.243l.244-.094c1.617-.642 4.707-2.74 5.891-4.024l.087-.09.39-.42c.245-.321.375-.715.375-1.138 0-.379-.116-.757-.347-1.064-.07-.099-.18-.226-.28-.334l-.379-.396c-1.305-1.322-4.129-3.176-5.593-3.79 0-.014-.91-.394-1.343-.408h-.057c-.665 0-1.286.38-1.603.991-.087.168-.17.496-.233.784l-.114.544c-.13.874-.216 2.216-.216 3.688zm-6.332-1.525C3.673 10.482 3 11.162 3 12a1.51 1.51 0 001.503 1.518l3.7-.328c.65 0 1.179-.532 1.179-1.19 0-.658-.528-1.191-1.18-1.191l-3.699-.327z" fill="var(--text)"/></symbol></svg>