<?xml version="1.0" encoding="utf-8"?><svg xmlns="http://www.w3.org/2000/svg" xmlns:xlink="http://www.w3.org/1999/xlink"><symbol fill="none" viewBox="0 0 22 22" id="arrow" xmlns="http://www.w3.org/2000/svg"><path fill-rule="evenodd" clip-rule="evenodd" d="M11.055 12.469l6.238 6.238a1 1 0 001.414-1.414l-6.238-6.238 4.945-2.063L2.876 2.876l6.116 14.538 2.063-4.945zm9.332-2.55c.819-.342.82-1.5.003-1.845L1.39.081C.566-.266-.265.565.082 1.391L8.074 20.39c.344.817 1.503.816 1.845-.003l1.832-4.393 4.128 4.127a3 3 0 104.242-4.242l-4.127-4.128 4.393-1.832z" fill="var(--primary)"/></symbol><symbol fill="none" viewBox="0 0 22 28" id="pointer" xmlns="http://www.w3.org/2000/svg"><path fill-rule="evenodd" clip-rule="evenodd" d="M7 0a3 3 0 00-3 3v7.1A5.002 5.002 0 000 15v3.077a7 7 0 001.304 4.069l2.985 4.179A4 4 0 007.544 28h7.715a4 4 0 003.473-2.015l2.346-4.105A7 7 0 0022 18.407V15a5 5 0 00-4.759-4.994A2.993 2.993 0 0015 9c-.535 0-1.037.14-1.471.385A2.998 2.998 0 0010 8.171V3a3 3 0 00-3-3z" fill="var(--primary)"/></symbol><symbol fill="none" viewBox="0 0 24 24" id="right" xmlns="http://www.w3.org/2000/svg"><path fill-rule="evenodd" clip-rule="evenodd" d="M10.835 12.007l.002.354c.012 1.404.096 2.657.242 3.451 0 .015.16.802.261 1.065.16.379.447.7.809.904a2 2 0 00.91.22c.249-.012.66-.138.954-.243l.244-.094c1.617-.642 4.707-2.74 5.891-4.024l.087-.09.39-.42c.245-.321.375-.715.375-1.138 0-.379-.116-.757-.347-1.064-.07-.099-.18-.226-.28-.334l-.379-.396c-1.305-1.322-4.129-3.176-5.593-3.79 0-.014-.91-.394-1.343-.408h-.057c-.665 0-1.286.38-1.603.991-.087.168-.17.496-.233.784l-.114.544c-.13.874-.216 2.216-.216 3.688zm-6.332-1.525C3.673 10.482 3 11.162 3 12a1.51 1.51 0 001.503 1.518l3.7-.328c.65 0 1.179-.532 1.179-1.19 0-.658-.528-1.191-1.18-1.191l-3.699-.327z" fill="var(--primary)"/></symbol></svg>