<svg width="350" height="250" viewBox="0 0 350 250" fill="none" xmlns="http://www.w3.org/2000/svg">
<g filter="url(#filter0_d_1911_966)">
<path fill-rule="evenodd" clip-rule="evenodd" d="M143.806 115.612C154.192 115.612 162.612 107.192 162.612 96.8058C162.612 86.4197 154.192 78 143.806 78C133.42 78 125 86.4197 125 96.8058C125 107.192 133.42 115.612 143.806 115.612ZM143.806 118.612C153.023 118.612 160.904 112.893 164.096 104.81L175.153 108.759C174.981 109.984 174.893 111.236 174.893 112.508C174.893 120.66 178.537 127.96 184.285 132.869L174.549 142.608C171.251 139.626 166.879 137.81 162.082 137.81C151.813 137.81 143.487 146.135 143.487 156.405C143.487 166.675 151.813 175 162.082 175C172.352 175 180.677 166.675 180.677 156.405C180.677 151.651 178.893 147.314 175.959 144.026L185.864 134.119C190.291 137.359 195.75 139.273 201.657 139.273C216.439 139.273 228.421 127.29 228.421 112.508C228.421 97.7267 216.439 85.7439 201.657 85.7439C188.848 85.7439 178.14 94.7427 175.511 106.763L164.743 102.918C165.309 100.979 165.612 98.9276 165.612 96.8058C165.612 84.7628 155.849 75 143.806 75C131.763 75 122 84.7628 122 96.8058C122 108.849 131.763 118.612 143.806 118.612ZM162.082 172C170.695 172 177.677 165.018 177.677 156.405C177.677 147.792 170.695 140.81 162.082 140.81C153.469 140.81 146.487 147.792 146.487 156.405C146.487 165.018 153.469 172 162.082 172ZM225.421 112.508C225.421 125.633 214.782 136.273 201.657 136.273C188.532 136.273 177.893 125.633 177.893 112.508C177.893 99.3836 188.532 88.7439 201.657 88.7439C214.782 88.7439 225.421 99.3836 225.421 112.508Z" fill="#BCBCBC"/>
</g>
<path d="M202.609 104.465L201.653 105.491L200.698 104.465C198.059 101.63 193.781 101.63 191.142 104.465C188.503 107.299 188.503 111.896 191.142 114.731L199.742 123.97C200.798 125.104 202.509 125.104 203.564 123.97L212.164 114.731C214.803 111.896 214.803 107.299 212.164 104.465C209.526 101.63 205.247 101.63 202.609 104.465Z" fill="#F38470"/>
<path d="M144.581 90.2523L143.803 91.0887L143.024 90.2523C140.874 87.9426 137.389 87.9426 135.239 90.2523C133.089 92.562 133.089 96.3067 135.239 98.6164L142.245 106.144C143.105 107.068 144.5 107.068 145.36 106.144L152.366 98.6164C154.516 96.3067 154.516 92.562 152.366 90.2523C150.216 87.9426 146.731 87.9426 144.581 90.2523Z" fill="#F38470"/>
<path d="M162.743 150.816L162.08 151.529L161.416 150.816C159.582 148.846 156.61 148.846 154.777 150.816C152.944 152.786 152.944 155.979 154.777 157.949L160.752 164.368C161.485 165.156 162.674 165.156 163.407 164.368L169.382 157.949C171.216 155.979 171.216 152.786 169.382 150.816C167.549 148.846 164.577 148.846 162.743 150.816Z" fill="#F38470"/>
<path d="M187.28 114.576C189.967 111.572 194.559 111.317 197.548 114.007C196.056 112.664 195.247 110.834 195.143 108.975C195.05 107.115 195.662 105.207 197.003 103.708C195.662 105.207 193.836 106.023 191.982 106.131C190.128 106.228 188.227 105.619 186.735 104.277C188.227 105.619 189.036 107.449 189.14 109.308C189.233 111.168 188.621 113.076 187.28 114.576Z" fill="white"/>
<path d="M119.484 98.5172C121.729 100.191 122.189 103.352 120.513 105.587C121.35 104.471 122.566 103.798 123.846 103.611C125.127 103.432 126.485 103.737 127.606 104.572C126.485 103.737 125.808 102.524 125.618 101.248C125.436 99.9713 125.74 98.6181 126.577 97.503C125.74 98.6181 124.524 99.2914 123.244 99.478C121.963 99.6577 120.604 99.3523 119.484 98.5172Z" fill="white"/>
<path d="M171.336 147.053C173.189 147.957 173.954 150.182 173.047 152.028C173.5 151.106 174.288 150.453 175.189 150.143C176.091 149.838 177.116 149.873 178.041 150.324C177.116 149.873 176.46 149.088 176.148 148.19C175.842 147.291 175.877 146.27 176.33 145.349C175.877 146.27 175.089 146.924 174.188 147.234C173.286 147.539 172.261 147.504 171.336 147.053Z" fill="white"/>
<defs>
<filter id="filter0_d_1911_966" x="116" y="69" width="118.421" height="112" filterUnits="userSpaceOnUse" color-interpolation-filters="sRGB">
<feFlood flood-opacity="0" result="BackgroundImageFix"/>
<feColorMatrix in="SourceAlpha" type="matrix" values="0 0 0 0 0 0 0 0 0 0 0 0 0 0 0 0 0 0 127 0" result="hardAlpha"/>
<feOffset/>
<feGaussianBlur stdDeviation="3"/>
<feComposite in2="hardAlpha" operator="out"/>
<feColorMatrix type="matrix" values="0 0 0 0 1 0 0 0 0 1 0 0 0 0 1 0 0 0 0.4 0"/>
<feBlend mode="normal" in2="BackgroundImageFix" result="effect1_dropShadow_1911_966"/>
<feBlend mode="normal" in="SourceGraphic" in2="effect1_dropShadow_1911_966" result="shape"/>
</filter>
</defs>
</svg>
